<svg width="175" height="173" viewBox="0 0 175 173" fill="none" xmlns="http://www.w3.org/2000/svg">
<path d="M13.8364 87.0363C13.8364 105.206 21.0959 122.631 34.0179 135.479C46.9399 148.327 64.466 155.544 82.7404 155.544C101.015 155.544 118.541 148.327 131.463 135.479C144.385 122.631 151.644 105.206 151.644 87.0363C151.644 68.8669 144.385 51.4416 131.463 38.5938C118.541 25.7461 101.015 18.5283 82.7404 18.5283C64.466 18.5283 46.9399 25.7461 34.0179 38.5938C21.0959 51.4416 13.8364 68.8669 13.8364 87.0363Z" fill="#484949"/>
<path d="M61.9073 138.845C61.9073 139.527 63.9037 140.18 67.4573 140.662C71.0108 141.144 75.8305 141.414 80.8559 141.414C85.8814 141.414 90.7011 141.144 94.2546 140.662C97.8082 140.18 99.8046 139.527 99.8046 138.845C99.8046 138.164 97.8082 137.511 94.2546 137.029C90.7011 136.547 85.8814 136.276 80.8559 136.276C75.8305 136.276 71.0108 136.547 67.4573 137.029C63.9037 137.511 61.9073 138.164 61.9073 138.845Z" fill="#2B2C2C"/>
<path d="M112.407 115.878C112.537 116.633 112.361 117.408 111.916 118.034C111.472 118.659 110.796 119.083 110.037 119.213L41.324 130.981C40.9496 131.044 40.5662 131.034 40.1959 130.95C39.8256 130.865 39.4758 130.709 39.1665 130.489C38.8573 130.27 38.5948 129.992 38.3942 129.671C38.1936 129.35 38.0588 128.993 37.9977 128.621L23.2763 43.6502C23.1459 42.8957 23.3222 42.1207 23.7663 41.4954C24.2105 40.8701 24.8862 40.4457 25.6449 40.3156L94.3301 28.5527C94.706 28.4883 95.0909 28.4981 95.463 28.5816C95.835 28.665 96.1869 28.8206 96.4985 29.0392C96.8101 29.2579 97.0753 29.5355 97.2791 29.8561C97.4828 30.1767 97.621 30.534 97.6858 30.9077L112.407 115.878Z" fill="white"/>
<path d="M99.6116 42.0248L97.6858 30.9077C97.621 30.534 97.4828 30.1767 97.2791 29.8561C97.0753 29.5355 96.8101 29.2579 96.4985 29.0392C96.1869 28.8206 95.835 28.665 95.463 28.5816C95.091 28.4981 94.706 28.4883 94.3302 28.5527L25.6449 40.3156C24.8862 40.4457 24.2105 40.8701 23.7663 41.4954C23.3222 42.1207 23.1459 42.8957 23.2763 43.6502L25.2022 54.7673L99.6116 42.0248Z" fill="#2B2C2C"/>
<path d="M46.0284 84.3553L93.6497 76.3467" stroke="#313131" stroke-linecap="round" stroke-linejoin="round"/>
<path d="M40.8692 58.8465L89.6308 50.48C90.1884 50.3846 90.7612 50.5132 91.2235 50.8376C91.6857 51.1619 91.9995 51.6555 92.0959 52.2098L93.8098 62.0784C93.9058 62.6327 93.7764 63.2023 93.4502 63.6619C93.1239 64.1214 92.6275 64.4334 92.07 64.5292L43.3049 72.8975C42.7478 72.9929 42.1754 72.8645 41.7135 72.5404C41.2516 72.2164 40.938 71.7232 40.8416 71.1694L39.1276 61.2991C39.0799 61.0245 39.087 60.7432 39.1486 60.4713C39.2102 60.1994 39.325 59.9423 39.4866 59.7145C39.6482 59.4868 39.8533 59.2929 40.0902 59.1439C40.3271 58.995 40.593 58.8939 40.8692 58.8465Z" fill="#2B2C2C" stroke="#313131" stroke-linecap="round" stroke-linejoin="round"/>
<path d="M48.6157 99.2906L96.237 91.2803" stroke="#313131" stroke-linecap="round" stroke-linejoin="round"/>
<path d="M51.2031 114.223L98.8244 106.215" stroke="#313131" stroke-linecap="round" stroke-linejoin="round"/>
<path d="M25.2021 54.7669L99.6116 42.0244" stroke="#313131" stroke-linecap="round" stroke-linejoin="round"/>
<path d="M28.0272 46.7962C28.0272 47.1842 28.1041 47.5684 28.2534 47.9268C28.4027 48.2853 28.6216 48.6109 28.8976 48.8853C29.1735 49.1596 29.5011 49.3772 29.8616 49.5257C30.2221 49.6742 30.6085 49.7506 30.9987 49.7506C31.3889 49.7506 31.7753 49.6742 32.1358 49.5257C32.4964 49.3772 32.8239 49.1596 33.0999 48.8853C33.3758 48.6109 33.5947 48.2853 33.744 47.9268C33.8933 47.5684 33.9702 47.1842 33.9702 46.7962C33.9702 46.4082 33.8933 46.024 33.744 45.6656C33.5947 45.3072 33.3758 44.9815 33.0999 44.7071C32.8239 44.4328 32.4964 44.2152 32.1358 44.0667C31.7753 43.9182 31.3889 43.8418 30.9987 43.8418C30.6085 43.8418 30.2221 43.9182 29.8616 44.0667C29.5011 44.2152 29.1735 44.4328 28.8976 44.7071C28.6216 44.9815 28.4027 45.3072 28.2534 45.6656C28.1041 46.024 28.0272 46.4082 28.0272 46.7962Z" fill="white" stroke="#313131" stroke-linecap="round" stroke-linejoin="round"/>
<path d="M37.5256 45.1693C37.5256 45.9528 37.8387 46.7043 38.396 47.2583C38.9532 47.8124 39.709 48.1237 40.4971 48.1237C41.2852 48.1237 42.041 47.8124 42.5983 47.2583C43.1555 46.7043 43.4686 45.9528 43.4686 45.1693C43.4686 44.3857 43.1555 43.6342 42.5983 43.0802C42.041 42.5261 41.2852 42.2148 40.4971 42.2148C39.709 42.2148 38.9532 42.5261 38.396 43.0802C37.8387 43.6342 37.5256 44.3857 37.5256 45.1693Z" fill="white" stroke="#313131" stroke-linecap="round" stroke-linejoin="round"/>
<path d="M47.024 43.5423C47.024 44.3259 47.3371 45.0773 47.8944 45.6314C48.4516 46.1854 49.2074 46.4967 49.9955 46.4967C50.7836 46.4967 51.5394 46.1854 52.0967 45.6314C52.654 45.0773 52.967 44.3259 52.967 43.5423C52.967 42.7587 52.654 42.0073 52.0967 41.4532C51.5394 40.8992 50.7836 40.5879 49.9955 40.5879C49.2074 40.5879 48.4516 40.8992 47.8944 41.4532C47.3371 42.0073 47.024 42.7587 47.024 43.5423Z" fill="white" stroke="#313131" stroke-linecap="round" stroke-linejoin="round"/>
<path d="M112.407 115.878C112.537 116.633 112.361 117.408 111.916 118.034C111.472 118.659 110.796 119.083 110.037 119.213L41.324 130.981C40.9496 131.044 40.5662 131.034 40.1959 130.95C39.8256 130.865 39.4758 130.709 39.1665 130.489C38.8573 130.27 38.5948 129.992 38.3942 129.671C38.1936 129.35 38.0588 128.993 37.9977 128.621L23.2763 43.6502C23.1459 42.8957 23.3222 42.1207 23.7663 41.4954C24.2105 40.8701 24.8862 40.4457 25.6449 40.3156L94.3301 28.5527C94.706 28.4883 95.0909 28.4981 95.463 28.5816C95.835 28.665 96.1869 28.8206 96.4985 29.0392C96.8101 29.2579 97.0753 29.5355 97.2791 29.8561C97.4828 30.1767 97.621 30.534 97.6858 30.9077L112.407 115.878Z" stroke="#313131" stroke-linecap="round" stroke-linejoin="round"/>
<path d="M119.213 68.2254L123.151 58.4082L134.665 62.976L130.725 72.7897L119.213 68.2254Z" fill="white" stroke="#313131" stroke-linecap="round" stroke-linejoin="round"/>
<path d="M156.702 69.8197C158.447 70.5117 159.844 71.8646 160.586 73.5807C161.328 75.2969 161.353 77.2357 160.657 78.9706C159.961 80.7056 158.6 82.0946 156.874 82.832C155.148 83.5695 153.198 83.595 151.453 82.903L131.716 75.0725C131.28 74.8992 130.931 74.5608 130.745 74.1318C130.56 73.7028 130.553 73.2182 130.727 72.7844L134.663 62.9723C134.837 62.5387 135.178 62.1917 135.609 62.0074C136.041 61.8231 136.528 61.8165 136.965 61.9892L156.702 69.8197Z" fill="#2B2C2C"/>
<path d="M156.702 69.8197C158.447 70.5117 159.844 71.8646 160.586 73.5807C161.328 75.2969 161.353 77.2357 160.657 78.9706C159.961 80.7056 158.6 82.0946 156.874 82.832C155.148 83.5695 153.198 83.595 151.453 82.903L131.716 75.0725C131.28 74.8992 130.931 74.5608 130.745 74.1318C130.56 73.7028 130.553 73.2182 130.727 72.7844L134.663 62.9723C134.837 62.5387 135.178 62.1917 135.609 62.0074C136.041 61.8231 136.528 61.8165 136.965 61.9892L156.702 69.8197Z" stroke="#313131" stroke-linecap="round" stroke-linejoin="round"/>
<path d="M57.5681 51.241C57.5681 55.6765 58.4468 60.0687 60.154 64.1666C61.8613 68.2645 64.3636 71.9879 67.5181 75.1243C70.6726 78.2608 74.4176 80.7487 78.5392 82.4461C82.6608 84.1435 87.0783 85.0172 91.5395 85.0172C96.0007 85.0172 100.418 84.1435 104.54 82.4461C108.661 80.7487 112.406 78.2608 115.561 75.1243C118.715 71.9879 121.218 68.2645 122.925 64.1666C124.632 60.0687 125.511 55.6765 125.511 51.241C125.511 42.283 121.932 33.6919 115.561 27.3577C109.19 21.0234 100.549 17.4648 91.5395 17.4648C82.5297 17.4648 73.889 21.0234 67.5181 27.3577C61.1472 33.6919 57.5681 42.283 57.5681 51.241Z" fill="white"/>
<path d="M65.2354 55.7431C65.8126 59.1935 67.0701 62.4964 68.9357 65.462C70.8012 68.4275 73.238 70.9971 76.1059 73.023C78.9738 75.0489 82.2162 76.4911 85.6467 77.2667C89.0772 78.0423 92.628 78.1361 96.095 77.5425C99.5621 76.9489 102.877 75.6797 105.849 73.8079C108.821 71.9361 111.391 69.4987 113.412 66.6357C115.434 63.7728 116.866 60.5408 117.626 57.1257C118.386 53.7105 118.46 50.1796 117.844 46.736C117.263 43.2885 116.003 39.989 114.136 37.027C112.27 34.065 109.833 31.4988 106.966 29.4759C104.099 27.453 100.858 26.0131 97.4293 25.239C94.0009 24.4649 90.4525 24.3719 86.9879 24.9652C83.5232 25.5585 80.2105 26.8264 77.2402 28.6963C74.2698 30.5661 71.7002 33.001 69.6789 35.861C67.6577 38.721 66.2247 41.9499 65.4621 45.3621C64.6995 48.7744 64.6225 52.3011 65.2354 55.7431Z" fill="#484949"/>
<path d="M107.16 29.7208C103.944 27.4153 100.251 25.851 96.3508 25.1415C92.4504 24.432 88.4401 24.5951 84.611 25.619C80.7819 26.6428 77.2303 28.5018 74.2141 31.0608C71.1978 33.6198 68.7927 36.8146 67.1733 40.4132L107.811 33.4545L107.16 29.7208Z" fill="#2B2C2C" stroke="#313131" stroke-linecap="round" stroke-linejoin="round"/>
<path d="M107.806 33.4541L67.1733 40.4128C65.5409 44.0339 64.7502 47.9743 64.8599 51.941C64.8954 53.2164 65.0226 54.4876 65.2406 55.7449C66.1454 60.9366 68.5836 65.7432 72.2449 69.5527C75.9061 73.3622 80.6248 76.0022 85.8 77.1367C90.9753 78.2712 96.373 77.8488 101.306 75.9233C106.239 73.9978 110.484 70.6563 113.501 66.3242L107.806 33.4541Z" fill="white" stroke="#313131" stroke-linecap="round" stroke-linejoin="round"/>
<path d="M100.149 63.9097L97.4808 48.5074C97.3844 47.9526 97.0704 47.4586 96.6079 47.1339C96.1453 46.8093 95.572 46.6804 95.014 46.7758L64.8547 51.9413C64.8902 53.2167 65.0174 54.4879 65.2354 55.7452C66.2179 61.4604 69.0627 66.6959 73.3317 70.6457L98.4007 66.352C98.958 66.2581 99.4551 65.9482 99.7828 65.4903C100.111 65.0325 100.242 64.464 100.149 63.9097Z" fill="#2B2C2C" stroke="#313131" stroke-linecap="round" stroke-linejoin="round"/>
<path d="M65.2354 55.7431C65.8126 59.1935 67.0701 62.4964 68.9357 65.462C70.8012 68.4275 73.238 70.9971 76.1059 73.023C78.9738 75.0489 82.2162 76.4911 85.6467 77.2667C89.0772 78.0423 92.628 78.1361 96.095 77.5425C99.5621 76.9489 102.877 75.6797 105.849 73.8079C108.821 71.9361 111.391 69.4987 113.412 66.6357C115.434 63.7728 116.866 60.5408 117.626 57.1257C118.386 53.7105 118.46 50.1796 117.844 46.736C117.263 43.2885 116.003 39.989 114.136 37.027C112.27 34.065 109.833 31.4988 106.966 29.4759C104.099 27.453 100.858 26.0131 97.4293 25.239C94.0009 24.4649 90.4525 24.3719 86.9879 24.9652C83.5232 25.5585 80.2105 26.8264 77.2402 28.6963C74.2698 30.5661 71.7002 33.001 69.6789 35.861C67.6577 38.721 66.2247 41.9499 65.4621 45.3621C64.6995 48.7744 64.6225 52.3011 65.2354 55.7431Z" stroke="#313131" stroke-linecap="round" stroke-linejoin="round"/>
<path d="M57.5681 51.241C57.5681 55.6765 58.4468 60.0687 60.154 64.1666C61.8613 68.2645 64.3636 71.9879 67.5181 75.1243C70.6726 78.2608 74.4176 80.7487 78.5392 82.4461C82.6608 84.1435 87.0783 85.0172 91.5395 85.0172C96.0007 85.0172 100.418 84.1435 104.54 82.4461C108.661 80.7487 112.406 78.2608 115.561 75.1243C118.715 71.9879 121.218 68.2645 122.925 64.1666C124.632 60.0687 125.511 55.6765 125.511 51.241C125.511 42.283 121.932 33.6919 115.561 27.3577C109.19 21.0234 100.549 17.4648 91.5395 17.4648C82.5297 17.4648 73.889 21.0234 67.5181 27.3577C61.1472 33.6919 57.5681 42.283 57.5681 51.241Z" stroke="#313131" stroke-linecap="round" stroke-linejoin="round"/>
</svg>
