<svg width="12" height="12" viewBox="0 0 12 12" fill="none" xmlns="http://www.w3.org/2000/svg">
<path d="M6 12C9.34513 12 12 9.29204 12 6C12 2.65487 9.29203 0 6 0C2.65487 0 0 2.70796 0 6C0 9.29204 2.70796 12 6 12Z" fill="#2C374B"/>
<path fill-rule="evenodd" clip-rule="evenodd" d="M9.29219 3.82303C9.23909 3.76994 6.63732 2.23011 6.31874 2.12392C6.21255 2.07082 5.94706 2.01772 5.78777 2.07082C5.62847 2.12392 2.86741 3.71684 2.76122 3.82303C2.70812 3.87613 2.65502 3.98233 2.60193 4.03542C2.54883 4.14162 2.54883 4.19472 2.54883 6.05312V7.96463L2.92051 8.17702C3.1329 8.28321 3.29219 8.38941 3.29219 8.38941C3.34529 8.38941 5.84086 4.4071 5.84086 4.35401C5.84086 4.30091 5.25679 4.30091 5.0975 4.35401C4.88511 4.4071 4.72582 4.5133 4.61962 4.61949C4.56653 4.67259 4.24794 5.20357 3.82316 5.78764C3.45148 6.37171 3.1329 6.90268 3.1329 6.90268C3.1329 6.90268 3.1329 6.37171 3.1329 5.62834V4.30091L3.186 4.24781C3.29219 4.14162 6.00016 2.6018 6.10635 2.6018C6.15945 2.6018 6.21255 2.6018 6.84971 2.97348C7.0621 3.07967 7.64617 3.39826 8.12405 3.71684C8.60193 3.98233 9.02671 4.24781 9.0798 4.30091L9.1329 4.35401V7.11507L7.80547 5.04427C7.75237 4.93808 7.69927 4.83188 7.64617 4.77879C7.64617 4.77879 7.59308 4.88498 7.27449 5.41595C7.22139 5.46905 7.1683 5.57525 7.1683 5.62834L7.1152 5.73454L7.1683 5.78764L7.2214 5.84073C7.2214 5.84073 7.22139 5.89383 7.27449 5.89383L7.38069 6.05312C7.38069 6.05312 7.38069 6.10622 7.43378 6.10622C7.48688 6.15932 7.53998 6.26551 7.53998 6.31861C7.53998 6.31861 7.53998 6.31861 7.53998 6.37171L8.65502 8.17702L8.54883 8.23011C8.49573 8.28321 8.44263 8.28321 8.38954 8.28321L7.00901 6.15932L6.95591 6.10622L6.84971 6.31861L6.31874 7.16817L7.38069 8.86728C7.2214 8.97348 6.31874 9.61064 6.26564 9.61064C6.21255 9.61064 4.99131 8.81418 5.0444 8.76109C5.0444 8.76109 5.41609 8.12392 5.84086 7.38056C6.21255 6.74339 6.69042 5.94693 7.00901 5.41595C7.38069 4.77879 7.53998 4.4602 7.53998 4.4602C7.53998 4.4602 7.27449 4.4602 6.95591 4.4602H6.42494L5.2037 6.4779C4.77892 7.22126 4.35414 7.91153 4.14175 8.28321C3.77007 8.33631 3.66387 8.4425 3.66387 8.4425L3.61078 8.5487L4.56653 9.07967C5.0975 9.39825 5.57538 9.66374 5.68157 9.71684C5.84086 9.82303 6.10635 9.82303 6.21254 9.82303C6.31874 9.76994 9.0798 8.17702 9.23909 8.07082C9.29219 8.01772 9.34529 7.96463 9.39839 7.85843L9.45148 7.69914V5.94693V4.19472L9.39839 4.08852C9.39839 3.98233 9.29219 3.87613 9.29219 3.82303Z" fill="#FDFCFF"/>
<path d="M9.0266 7.06162L7.43368 4.61914L6.84961 5.57489L8.38943 8.07047L9.0797 7.75188L9.0266 7.06162Z" fill="#24A2EE"/>
<path d="M8.28319 8.38974L6.69027 5.94727L6 7.00921L7.27434 9.02691L8.0708 8.70833L8.28319 8.38974Z" fill="#24A2EE"/>
<path fill-rule="evenodd" clip-rule="evenodd" d="M3.08016 4.30116L6.00052 2.60205L8.92087 4.30116V7.69939L6.00052 9.39851L3.82353 8.17727L3.55804 8.65514L5.94742 10.0357C6.00052 10.0888 6.05362 10.0888 6.10671 10.0357L9.45185 8.12417C9.50494 8.07107 9.55804 8.01798 9.55804 7.96488V4.14187C9.55804 4.08877 9.50494 4.03568 9.45185 3.98258L6.10671 2.07107C6.05362 2.01798 6.00052 2.01798 5.94742 2.07107L2.60229 3.92948C2.54919 3.98258 2.49609 4.03568 2.49609 4.08877V7.91178C2.49609 7.96488 2.54919 8.01798 2.60229 8.07107L3.29255 8.44276L3.61114 7.96488L3.13326 7.69939V4.30116H3.08016Z" fill="#98BCDC"/>
<path d="M7.27443 4.30078H6.15939L3.55762 8.54857L4.46027 9.07954L7.27443 4.30078Z" fill="#FDFCFF"/>
<path d="M4.4607 4.72588C4.72618 4.3011 5.46954 4.3011 5.78813 4.35419L3.23946 8.44269C3.13326 8.38959 2.92087 8.2834 2.76158 8.1772C2.54919 8.07101 2.49609 8.07101 2.49609 7.91172V7.69933C3.08016 6.84977 4.19521 5.15065 4.4607 4.72588Z" fill="#FDFCFF"/>
</svg>
