<svg width="16" height="17" viewBox="0 0 16 17" fill="none" xmlns="http://www.w3.org/2000/svg">
<path d="M10.7267 7.588L9.81672 8.5L4.72806 3.41533V3.404L5.62806 2.504H5.64339L10.7267 7.588ZM11.2741 3.408L10.3674 2.504H10.3594L8.45472 4.40866V4.416L9.35872 5.32333H9.37006L11.2741 3.41533V3.408ZM5.27206 7.584L4.36472 8.49866L2.01006 6.144L2.00806 6.14133V6.13533L2.01006 6.13266L2.91006 5.23266H2.92139L5.27606 7.58733L5.27206 7.584Z" fill="white"/>
<path d="M11.638 8.50267L10.7267 9.40934L9.366 10.7707H9.362L8.45867 9.87067L8.45467 9.86401V9.85601L9.81933 8.49867L13.0853 5.22934C13.0875 5.22791 13.0901 5.22714 13.0927 5.22714C13.0953 5.22714 13.0978 5.22791 13.1 5.22934L14 6.12934V6.14401L11.6453 8.50601L11.638 8.50267ZM6.18667 8.49867L5.27933 9.41334L2.91733 11.768L2.91333 11.7693L2.91 11.768L2.00267 10.868L2 10.8667V10.8627L2.00067 10.8593L2.00267 10.8573L4.35733 8.49534L5.268 7.58401L6.62933 6.23401V6.23067L6.63267 6.22934L6.63667 6.23067L7.54 7.13334V7.14067L6.18267 8.50201L6.18667 8.49867Z" fill="white"/>
<path d="M6.18656 8.5L11.2699 13.584V13.5953L10.3699 14.4953H10.3626L5.2799 9.414L6.18656 8.5ZM11.6379 8.50333L13.9999 10.862V10.8733L13.0959 11.7733H13.0886L10.7266 9.41467L11.6332 8.50733H11.6412L11.6379 8.50333ZM4.7279 13.5827L6.63256 11.678L6.63456 11.676H6.64123L6.6439 11.678L7.5439 12.5813H7.54723V12.5853L7.5479 12.5893L7.54723 12.5927L5.64256 14.494H5.63523L4.7279 13.594V13.59L4.72656 13.5867L4.7279 13.5827Z" fill="white"/>
</svg>
