<svg width="16" height="16" viewBox="0 0 16 16" fill="none" xmlns="http://www.w3.org/2000/svg">
<path d="M8 16C3.5815 16 0 12.4185 0 8C0 3.5815 3.5815 0 8 0C12.4185 0 16 3.5815 16 8C16 12.4185 12.4185 16 8 16ZM7.875 2C4.63 2 2 4.63 2 7.875C2 11.12 4.63 13.75 7.875 13.75C11.12 13.75 13.75 11.12 13.75 7.875C13.75 6.31685 13.131 4.82252 12.0293 3.72075C10.9275 2.61897 9.43315 2 7.875 2ZM7.875 12.285C6.7054 12.285 5.58369 11.8204 4.75666 10.9933C3.92962 10.1663 3.465 9.04461 3.465 7.875C3.465 6.7054 3.92962 5.58369 4.75666 4.75666C5.58369 3.92962 6.7054 3.465 7.875 3.465C9.04461 3.465 10.1663 3.92962 10.9933 4.75666C11.8204 5.58369 12.285 6.7054 12.285 7.875C12.285 9.04461 11.8204 10.1663 10.9933 10.9933C10.1663 11.8204 9.04461 12.285 7.875 12.285ZM6.41 7.88L7.88 10.08L9.34 7.88L7.88 5.675L6.41 7.88Z" fill="#CD7F32"/>
</svg>
