<svg width="22" height="22" viewBox="0 0 22 22" fill="none" xmlns="http://www.w3.org/2000/svg">
<path fill-rule="evenodd" clip-rule="evenodd" d="M6.5368 4.51C5.41751 4.51 4.51016 5.41736 4.51016 6.53664V12.9782C4.51016 14.0975 5.41751 15.0049 6.5368 15.0049H12.9784C14.0977 15.0049 15.005 14.0975 15.005 12.9782V6.53664C15.005 5.41736 14.0977 4.51 12.9784 4.51H6.5368ZM3.41016 6.53664C3.41016 4.80985 4.81 3.41 6.5368 3.41H12.9784C14.7052 3.41 16.105 4.80985 16.105 6.53664V12.9782C16.105 14.705 14.7052 16.1049 12.9784 16.1049H6.5368C4.81 16.1049 3.41016 14.7051 3.41016 12.9782V6.53664Z" fill="#888888"/>
<path fill-rule="evenodd" clip-rule="evenodd" d="M18.0402 8.47172C18.3439 8.47172 18.5902 8.71796 18.5902 9.02172V15.4634C18.5902 17.1901 17.1903 18.59 15.4635 18.59H9.02192C8.71816 18.59 8.47192 18.3438 8.47192 18.04C8.47192 17.7362 8.71816 17.49 9.02192 17.49H15.4635C16.5828 17.49 17.4902 16.5826 17.4902 15.4634V9.02172C17.4902 8.71796 17.7364 8.47172 18.0402 8.47172Z" fill="#888888"/>
</svg>
