<svg width="20" height="20" viewBox="0 0 20 20" fill="none" xmlns="http://www.w3.org/2000/svg">
<path d="M16.5 2C16.6326 2 16.7598 2.05268 16.8536 2.14645C16.9473 2.24021 17 2.36739 17 2.5V3H17.5C17.6326 3 17.7598 3.05268 17.8536 3.14645C17.9473 3.24021 18 3.36739 18 3.5C18 3.63261 17.9473 3.75979 17.8536 3.85355C17.7598 3.94732 17.6326 4 17.5 4H17V4.5C17 4.63261 16.9473 4.75979 16.8536 4.85355C16.7598 4.94732 16.6326 5 16.5 5C16.3674 5 16.2402 4.94732 16.1464 4.85355C16.0527 4.75979 16 4.63261 16 4.5V4H15.5C15.3674 4 15.2402 3.94732 15.1464 3.85355C15.0527 3.75979 15 3.63261 15 3.5C15 3.36739 15.0527 3.24021 15.1464 3.14645C15.2402 3.05268 15.3674 3 15.5 3H16V2.5C16 2.36739 16.0527 2.24021 16.1464 2.14645C16.2402 2.05268 16.3674 2 16.5 2ZM3.5 15C3.63261 15 3.75979 15.0527 3.85355 15.1464C3.94732 15.2402 4 15.3674 4 15.5V16H4.5C4.63261 16 4.75979 16.0527 4.85355 16.1464C4.94732 16.2402 5 16.3674 5 16.5C5 16.6326 4.94732 16.7598 4.85355 16.8536C4.75979 16.9473 4.63261 17 4.5 17H4V17.5C4 17.6326 3.94732 17.7598 3.85355 17.8536C3.75979 17.9473 3.63261 18 3.5 18C3.36739 18 3.24021 17.9473 3.14645 17.8536C3.05268 17.7598 3 17.6326 3 17.5V17H2.5C2.36739 17 2.24021 16.9473 2.14645 16.8536C2.05268 16.7598 2 16.6326 2 16.5C2 16.3674 2.05268 16.2402 2.14645 16.1464C2.24021 16.0527 2.36739 16 2.5 16H3V15.5C3 15.3674 3.05268 15.2402 3.14645 15.1464C3.24021 15.0527 3.36739 15 3.5 15ZM7.501 2C6.851 2 6.375 2.513 6.262 3.058C6.1011 3.84784 5.71365 4.57373 5.147 5.147C4.433 5.862 3.607 6.147 3.06 6.261C2.514 6.374 2 6.851 2 7.502C2.001 8.152 2.514 8.626 3.059 8.739C3.606 8.852 4.432 9.138 5.146 9.853C5.86 10.568 6.147 11.394 6.261 11.943C6.375 12.486 6.85 13 7.5 13C8.15 13 8.626 12.486 8.74 11.941C8.8996 11.1517 9.28647 10.4263 9.853 9.854C10.4257 9.28704 11.1513 8.89954 11.941 8.739C12.487 8.626 13 8.151 13 7.5C13 6.85 12.487 6.374 11.941 6.261C11.1518 6.10056 10.4265 5.71342 9.854 5.147C9.28771 4.5736 8.90062 3.84773 8.74 3.058C8.627 2.513 8.151 2 7.501 2ZM7 15V13.943C7.32847 14.0235 7.67153 14.0235 8 13.943V15C8 15.5304 8.21071 16.0391 8.58579 16.4142C8.96086 16.7893 9.46957 17 10 17H15C15.5304 17 16.0391 16.7893 16.4142 16.4142C16.7893 16.0391 17 15.5304 17 15V10C17 9.46957 16.7893 8.96086 16.4142 8.58579C16.0391 8.21071 15.5304 8 15 8H13.942C14.0225 7.67153 14.0225 7.32847 13.942 7H15C15.7956 7 16.5587 7.31607 17.1213 7.87868C17.6839 8.44129 18 9.20435 18 10V15C18 15.7956 17.6839 16.5587 17.1213 17.1213C16.5587 17.6839 15.7956 18 15 18H10C9.20435 18 8.44129 17.6839 7.87868 17.1213C7.31607 16.5587 7 15.7956 7 15ZM10 13.5C10 13.3674 10.0527 13.2402 10.1464 13.1464C10.2402 13.0527 10.3674 13 10.5 13H13.5C13.6326 13 13.7598 13.0527 13.8536 13.1464C13.9473 13.2402 14 13.3674 14 13.5C14 13.6326 13.9473 13.7598 13.8536 13.8536C13.7598 13.9473 13.6326 14 13.5 14H10.5C10.3674 14 10.2402 13.9473 10.1464 13.8536C10.0527 13.7598 10 13.6326 10 13.5ZM10.5 11C10.3674 11 10.2402 11.0527 10.1464 11.1464C10.0527 11.2402 10 11.3674 10 11.5C10 11.6326 10.0527 11.7598 10.1464 11.8536C10.2402 11.9473 10.3674 12 10.5 12H15C15.1326 12 15.2598 11.9473 15.3536 11.8536C15.4473 11.7598 15.5 11.6326 15.5 11.5C15.5 11.3674 15.4473 11.2402 15.3536 11.1464C15.2598 11.0527 15.1326 11 15 11H10.5Z" fill="#FA6E43"/>
</svg>
