<svg width="20" height="21" fill="none" xmlns="http://www.w3.org/2000/svg"><path d="M16.5 2.5a.5.5 0 01.5.5v.5h.5a.5.5 0 010 1H17V5a.5.5 0 01-1 0v-.5h-.5a.5.5 0 010-1h.5V3a.5.5 0 01.5-.5zm-13 13a.5.5 0 01.5.5v.5h.5a.5.5 0 010 1H4v.5a.5.5 0 01-1 0v-.5h-.5a.5.5 0 010-1H3V16a.5.5 0 01.5-.5zm4.001-13c-.65 0-1.126.513-1.239 1.058a4.15 4.15 0 01-1.115 2.089c-.714.715-1.54 1-2.087 1.114-.546.113-1.06.59-1.06 1.241.001.65.514 1.124 1.059 1.237a4.134 4.134 0 012.087 1.114 4.156 4.156 0 011.115 2.09c.114.543.589 1.057 1.239 1.057.65 0 1.126-.514 1.24-1.059a4.13 4.13 0 011.113-2.087 4.14 4.14 0 012.088-1.115C12.487 9.126 13 8.651 13 8c0-.65-.513-1.126-1.059-1.239a4.14 4.14 0 01-2.087-1.114A4.15 4.15 0 018.74 3.558C8.627 3.013 8.151 2.5 7.501 2.5zM7 15.5v-1.057a2.1 2.1 0 001 0V15.5a2 2 0 002 2h5a2 2 0 002-2v-5a2 2 0 00-2-2h-1.058a2.1 2.1 0 000-1H15a3 3 0 013 3v5a3 3 0 01-3 3h-5a3 3 0 01-3-3zm3-1.5a.5.5 0 01.5-.5h3a.5.5 0 010 1h-3a.5.5 0 01-.5-.5zm.5-2.5a.5.5 0 000 1H15a.5.5 0 000-1h-4.5z" fill="#fff"/></svg>