<svg width="14" height="14" viewBox="0 0 14 14" fill="none" xmlns="http://www.w3.org/2000/svg">
<path d="M4.44267 11.6667C4.18134 11.6667 3.95889 11.5749 3.77534 11.3914C3.59178 11.2078 3.50001 10.9856 3.50001 10.7246V3.50003H2.91667V2.9167H5.25001V2.46753H8.75V2.9167H11.0833V3.50003H10.5V10.7246C10.5 10.9929 10.4102 11.2171 10.2305 11.3972C10.0508 11.5773 9.82645 11.6671 9.55734 11.6667H4.44267ZM9.91667 3.50003H4.08334V10.7246C4.08334 10.8292 4.11698 10.9152 4.18426 10.9824C4.25153 11.0497 4.33767 11.0834 4.44267 11.0834H9.55792C9.64737 11.0834 9.72962 11.046 9.80467 10.9714C9.87973 10.8967 9.91706 10.8143 9.91667 10.724V3.50003ZM5.72134 9.9167H6.30467V4.6667H5.72134V9.9167ZM7.69534 9.9167H8.27867V4.6667H7.69534V9.9167Z" fill="#E32424"/>
</svg>
