<svg width="17" height="18" viewBox="0 0 17 18" fill="none" xmlns="http://www.w3.org/2000/svg">
<path d="M5.9716 1.58535H4C2.34315 1.58535 1 2.9285 1 4.58535V13.5001C1 15.157 2.34315 16.5001 4 16.5001H12.9148C14.5717 16.5001 15.9148 15.157 15.9148 13.5001V11.5285" stroke="white" stroke-width="1.5" stroke-linecap="round"/>
<path d="M8.76113 11.9924C8.41472 12.3388 7.95321 12.546 7.46416 12.5747L5.42317 12.6946C5.12434 12.7121 4.87716 12.4649 4.89471 12.1661L5.01457 10.1251C5.04329 9.63607 5.25051 9.17457 5.59692 8.82816L11.5107 2.91436C12.2918 2.13332 13.5581 2.13331 14.3391 2.91436L14.6749 3.25014C15.456 4.03119 15.456 5.29752 14.6749 6.07857L8.76113 11.9924Z" stroke="white" stroke-width="1.5"/>
</svg>
