<svg width="37" height="38" viewBox="0 0 37 38" fill="none" xmlns="http://www.w3.org/2000/svg">
<path opacity="0.2" d="M18.5 37.5C28.7173 37.5 37 29.2173 37 19C37 8.78273 28.7173 0.5 18.5 0.5C8.28273 0.5 0 8.78273 0 19C0 29.2173 8.28273 37.5 18.5 37.5Z" fill="#363737"/>
<path d="M27.1043 19.8416C27.1043 20.9916 26.9127 22.0458 26.4335 23.0999C25.9543 24.1541 25.2835 25.0166 24.421 25.8791C23.5585 26.6458 22.6002 27.3166 21.4502 27.6999C20.971 27.8916 20.396 28.0833 19.821 28.1791L20.1085 28.0833C20.1085 28.0833 22.2168 26.8374 22.696 24.1541C22.8877 21.7583 20.8752 20.7041 20.8752 20.7041C20.8752 20.7041 19.821 22.0458 18.3835 22.0458C16.0835 22.0458 16.4668 18.2125 16.4668 18.2125C16.4668 18.2125 13.0168 20.0333 13.0168 23.8666C13.0168 26.2624 15.5085 28.0833 15.5085 28.0833C15.221 27.9874 14.8377 27.8916 14.5502 27.7958C13.4002 27.4124 12.4418 26.7416 11.5793 25.9749C10.7168 25.2083 10.046 24.2499 9.56683 23.1958C9.08766 22.1416 8.896 21.0874 8.896 19.9374C8.896 16.1999 13.3043 12.5583 13.3043 12.5583C13.3043 12.5583 13.6877 15.4333 15.8918 15.4333C19.9168 15.4333 18.4793 9.01245 18.4793 9.01245C18.4793 9.01245 22.121 11.1208 23.1752 16.8708C25.1877 16.5833 24.996 13.9958 24.996 13.9958C24.996 13.9958 27.1043 16.7749 27.1043 19.8416Z" fill="#514F4F" fill-opacity="0.22"/>
<path d="M25.5207 21.6083C25.5207 22.5583 25.3623 23.4291 24.9665 24.3C24.5707 25.1708 24.0165 25.8833 23.304 26.5958C22.5915 27.2291 21.7998 27.7833 20.8498 28.1C20.454 28.2583 19.979 28.4166 19.504 28.4958L19.7415 28.4166C19.7415 28.4166 21.4832 27.3875 21.879 25.1708C22.0373 23.1916 20.3748 22.3208 20.3748 22.3208C20.3748 22.3208 19.504 23.4291 18.3165 23.4291C16.4165 23.4291 16.7332 20.2625 16.7332 20.2625C16.7332 20.2625 13.8832 21.7666 13.8832 24.9333C13.8832 26.9125 15.9415 28.4166 15.9415 28.4166C15.704 28.3375 15.3873 28.2583 15.1498 28.1791C14.1998 27.8625 13.4082 27.3083 12.6957 26.675C11.9832 26.0416 11.429 25.25 11.0332 24.3791C10.6373 23.5083 10.479 22.6375 10.479 21.6875C10.479 18.6 14.1207 15.5916 14.1207 15.5916C14.1207 15.5916 14.4373 17.9666 16.2582 17.9666C19.5832 17.9666 18.3957 12.6625 18.3957 12.6625C18.3957 12.6625 21.404 14.4041 22.2748 19.1541C23.9373 18.9166 23.779 16.7791 23.779 16.7791C23.779 16.7791 25.5207 19.075 25.5207 21.6083Z" fill="#5E4DFD"/>
</svg>
