<svg width="20" height="21" viewBox="0 0 20 21" fill="none" xmlns="http://www.w3.org/2000/svg">
<path d="M16.5 2.5C16.6326 2.5 16.7598 2.55268 16.8536 2.64645C16.9473 2.74021 17 2.86739 17 3V3.5H17.5C17.6326 3.5 17.7598 3.55268 17.8536 3.64645C17.9473 3.74021 18 3.86739 18 4C18 4.13261 17.9473 4.25979 17.8536 4.35355C17.7598 4.44732 17.6326 4.5 17.5 4.5H17V5C17 5.13261 16.9473 5.25979 16.8536 5.35355C16.7598 5.44732 16.6326 5.5 16.5 5.5C16.3674 5.5 16.2402 5.44732 16.1464 5.35355C16.0527 5.25979 16 5.13261 16 5V4.5H15.5C15.3674 4.5 15.2402 4.44732 15.1464 4.35355C15.0527 4.25979 15 4.13261 15 4C15 3.86739 15.0527 3.74021 15.1464 3.64645C15.2402 3.55268 15.3674 3.5 15.5 3.5H16V3C16 2.86739 16.0527 2.74021 16.1464 2.64645C16.2402 2.55268 16.3674 2.5 16.5 2.5ZM3.5 15.5C3.63261 15.5 3.75979 15.5527 3.85355 15.6464C3.94732 15.7402 4 15.8674 4 16V16.5H4.5C4.63261 16.5 4.75979 16.5527 4.85355 16.6464C4.94732 16.7402 5 16.8674 5 17C5 17.1326 4.94732 17.2598 4.85355 17.3536C4.75979 17.4473 4.63261 17.5 4.5 17.5H4V18C4 18.1326 3.94732 18.2598 3.85355 18.3536C3.75979 18.4473 3.63261 18.5 3.5 18.5C3.36739 18.5 3.24021 18.4473 3.14645 18.3536C3.05268 18.2598 3 18.1326 3 18V17.5H2.5C2.36739 17.5 2.24021 17.4473 2.14645 17.3536C2.05268 17.2598 2 17.1326 2 17C2 16.8674 2.05268 16.7402 2.14645 16.6464C2.24021 16.5527 2.36739 16.5 2.5 16.5H3V16C3 15.8674 3.05268 15.7402 3.14645 15.6464C3.24021 15.5527 3.36739 15.5 3.5 15.5ZM7.501 2.5C6.851 2.5 6.375 3.013 6.262 3.558C6.1011 4.34784 5.71365 5.07373 5.147 5.647C4.433 6.362 3.607 6.647 3.06 6.761C2.514 6.874 2 7.351 2 8.002C2.001 8.652 2.514 9.126 3.059 9.239C3.606 9.352 4.432 9.638 5.146 10.353C5.86 11.068 6.147 11.894 6.261 12.443C6.375 12.986 6.85 13.5 7.5 13.5C8.15 13.5 8.626 12.986 8.74 12.441C8.8996 11.6517 9.28647 10.9263 9.853 10.354C10.4257 9.78704 11.1513 9.39954 11.941 9.239C12.487 9.126 13 8.651 13 8C13 7.35 12.487 6.874 11.941 6.761C11.1518 6.60056 10.4265 6.21342 9.854 5.647C9.28771 5.0736 8.90062 4.34773 8.74 3.558C8.627 3.013 8.151 2.5 7.501 2.5ZM7 15.5V14.443C7.32847 14.5235 7.67153 14.5235 8 14.443V15.5C8 16.0304 8.21071 16.5391 8.58579 16.9142C8.96086 17.2893 9.46957 17.5 10 17.5H15C15.5304 17.5 16.0391 17.2893 16.4142 16.9142C16.7893 16.5391 17 16.0304 17 15.5V10.5C17 9.96957 16.7893 9.46086 16.4142 9.08579C16.0391 8.71071 15.5304 8.5 15 8.5H13.942C14.0225 8.17153 14.0225 7.82847 13.942 7.5H15C15.7956 7.5 16.5587 7.81607 17.1213 8.37868C17.6839 8.94129 18 9.70435 18 10.5V15.5C18 16.2956 17.6839 17.0587 17.1213 17.6213C16.5587 18.1839 15.7956 18.5 15 18.5H10C9.20435 18.5 8.44129 18.1839 7.87868 17.6213C7.31607 17.0587 7 16.2956 7 15.5ZM10 14C10 13.8674 10.0527 13.7402 10.1464 13.6464C10.2402 13.5527 10.3674 13.5 10.5 13.5H13.5C13.6326 13.5 13.7598 13.5527 13.8536 13.6464C13.9473 13.7402 14 13.8674 14 14C14 14.1326 13.9473 14.2598 13.8536 14.3536C13.7598 14.4473 13.6326 14.5 13.5 14.5H10.5C10.3674 14.5 10.2402 14.4473 10.1464 14.3536C10.0527 14.2598 10 14.1326 10 14ZM10.5 11.5C10.3674 11.5 10.2402 11.5527 10.1464 11.6464C10.0527 11.7402 10 11.8674 10 12C10 12.1326 10.0527 12.2598 10.1464 12.3536C10.2402 12.4473 10.3674 12.5 10.5 12.5H15C15.1326 12.5 15.2598 12.4473 15.3536 12.3536C15.4473 12.2598 15.5 12.1326 15.5 12C15.5 11.8674 15.4473 11.7402 15.3536 11.6464C15.2598 11.5527 15.1326 11.5 15 11.5H10.5Z" fill="white"/>
</svg>
