<svg width="14" height="15" viewBox="0 0 14 15" fill="none" xmlns="http://www.w3.org/2000/svg">
<path d="M7.00057 1.66669C3.77766 1.66669 1.16724 4.2771 1.16724 7.50002C1.16618 8.72461 1.55093 9.91842 2.26685 10.9119C2.98278 11.9055 3.99349 12.6482 5.15549 13.0347C5.44716 13.0854 5.55682 12.9104 5.55682 12.757C5.55682 12.6188 5.54924 12.1597 5.54924 11.6709C4.08391 11.9409 3.70474 11.3139 3.58807 10.9854C3.52216 10.8174 3.23807 10.3 2.99016 10.1612C2.78599 10.0521 2.49432 9.78202 2.98257 9.77502C3.44224 9.76744 3.77007 10.1979 3.87974 10.3729C4.40474 11.2549 5.24299 11.007 5.57841 10.8542C5.62974 10.475 5.78257 10.2201 5.95057 10.0743C4.65266 9.92844 3.29641 9.42502 3.29641 7.19377C3.29641 6.5591 3.52216 6.03469 3.89432 5.62635C3.83599 5.48052 3.63182 4.8826 3.95266 4.08052C3.95266 4.08052 4.44091 3.9271 5.55682 4.67785C6.03175 4.5464 6.52237 4.48026 7.01516 4.48127C7.51099 4.48127 8.00682 4.5466 8.47349 4.67785C9.58941 3.91952 10.0777 4.08052 10.0777 4.08052C10.3985 4.8826 10.1943 5.48052 10.136 5.62635C10.5076 6.03469 10.7339 6.5521 10.7339 7.19377C10.7339 9.4326 9.37066 9.92844 8.07274 10.0743C8.28391 10.2563 8.46649 10.6063 8.46649 11.1534C8.46649 11.9334 8.45891 12.5604 8.45891 12.7576C8.45891 12.9104 8.56857 13.0924 8.86024 13.0341C10.0179 12.6427 11.0237 11.8984 11.7364 10.9057C12.4491 9.91308 12.8327 8.72202 12.8333 7.50002C12.8333 4.2771 10.2229 1.66669 6.99999 1.66669" fill="white"/>
</svg>
