<svg width="33" height="32" fill="none" xmlns="http://www.w3.org/2000/svg"><g filter="url(#prefix__filter0_d_3300_1965)"><path d="M25 11.991c-4.693 0-8.491 3.816-8.491 8.509 0-4.693-3.816-8.509-8.509-8.509 4.693 0 8.509-3.798 8.509-8.491A8.486 8.486 0 0025 11.991z" fill="#FA6E43"/><path d="M25 11.991c-4.693 0-8.491 3.816-8.491 8.509 0-4.693-3.816-8.509-8.509-8.509 4.693 0 8.509-3.798 8.509-8.491A8.486 8.486 0 0025 11.991z" stroke="#FA6E43" stroke-linecap="round" stroke-linejoin="round"/></g><rect x="14" y="24.5" width="6" height="6" rx="3" fill="#FA6E43"/><defs><filter id="prefix__filter0_d_3300_1965" x="3.5" y="3" width="26" height="26" filterUnits="userSpaceOnUse" color-interpolation-filters="sRGB"><feFlood flood-opacity="0" result="BackgroundImageFix"/><feColorMatrix in="SourceAlpha" values="0 0 0 0 0 0 0 0 0 0 0 0 0 0 0 0 0 0 127 0" result="hardAlpha"/><feOffset dy="4"/><feGaussianBlur stdDeviation="2"/><feComposite in2="hardAlpha" operator="out"/><feColorMatrix values="0 0 0 0 0 0 0 0 0 0 0 0 0 0 0 0 0 0 0.25 0"/><feBlend in2="BackgroundImageFix" result="effect1_dropShadow_3300_1965"/><feBlend in="SourceGraphic" in2="effect1_dropShadow_3300_1965" result="shape"/></filter></defs></svg>