<svg width="33" height="32" viewBox="0 0 33 32" fill="none" xmlns="http://www.w3.org/2000/svg">
<g filter="url(#filter0_d_3300_1965)">
<path d="M25 11.991C20.3066 11.991 16.509 15.8066 16.509 20.5C16.509 15.8066 12.6934 11.991 8 11.991C12.6934 11.991 16.509 8.19336 16.509 3.5C16.509 8.19336 20.3066 11.991 25 11.991Z" fill="#FA6E43"/>
<path d="M25 11.991C20.3066 11.991 16.509 15.8066 16.509 20.5C16.509 15.8066 12.6934 11.991 8 11.991C12.6934 11.991 16.509 8.19336 16.509 3.5C16.509 8.19336 20.3066 11.991 25 11.991Z" stroke="#FA6E43" stroke-linecap="round" stroke-linejoin="round"/>
</g>
<rect x="14" y="24.5" width="6" height="6" rx="3" fill="#FA6E43"/>
<defs>
<filter id="filter0_d_3300_1965" x="3.5" y="3" width="26" height="26" filterUnits="userSpaceOnUse" color-interpolation-filters="sRGB">
<feFlood flood-opacity="0" result="BackgroundImageFix"/>
<feColorMatrix in="SourceAlpha" type="matrix" values="0 0 0 0 0 0 0 0 0 0 0 0 0 0 0 0 0 0 127 0" result="hardAlpha"/>
<feOffset dy="4"/>
<feGaussianBlur stdDeviation="2"/>
<feComposite in2="hardAlpha" operator="out"/>
<feColorMatrix type="matrix" values="0 0 0 0 0 0 0 0 0 0 0 0 0 0 0 0 0 0 0.25 0"/>
<feBlend mode="normal" in2="BackgroundImageFix" result="effect1_dropShadow_3300_1965"/>
<feBlend mode="normal" in="SourceGraphic" in2="effect1_dropShadow_3300_1965" result="shape"/>
</filter>
</defs>
</svg>
