<svg width="14" height="14" viewBox="0 0 14 14" fill="none" xmlns="http://www.w3.org/2000/svg">
<path d="M6.4165 10.5H7.58317V9.33335H6.4165V10.5ZM6.99984 1.16669C6.23379 1.16669 5.47525 1.31757 4.76752 1.61072C4.05978 1.90388 3.41672 2.33356 2.87505 2.87523C1.78109 3.96919 1.1665 5.45292 1.1665 7.00002C1.1665 8.54712 1.78109 10.0308 2.87505 11.1248C3.41672 11.6665 4.05978 12.0962 4.76752 12.3893C5.47525 12.6825 6.23379 12.8334 6.99984 12.8334C8.54693 12.8334 10.0307 12.2188 11.1246 11.1248C12.2186 10.0308 12.8332 8.54712 12.8332 7.00002C12.8332 6.23398 12.6823 5.47543 12.3891 4.7677C12.096 4.05997 11.6663 3.41691 11.1246 2.87523C10.583 2.33356 9.93989 1.90388 9.23216 1.61072C8.52442 1.31757 7.76588 1.16669 6.99984 1.16669ZM6.99984 11.6667C4.42734 11.6667 2.33317 9.57252 2.33317 7.00002C2.33317 4.42752 4.42734 2.33335 6.99984 2.33335C9.57234 2.33335 11.6665 4.42752 11.6665 7.00002C11.6665 9.57252 9.57234 11.6667 6.99984 11.6667ZM6.99984 3.50002C6.381 3.50002 5.78751 3.74585 5.34992 4.18344C4.91234 4.62102 4.6665 5.21452 4.6665 5.83335H5.83317C5.83317 5.52393 5.95609 5.22719 6.17488 5.0084C6.39367 4.7896 6.69042 4.66669 6.99984 4.66669C7.30926 4.66669 7.606 4.7896 7.82479 5.0084C8.04359 5.22719 8.1665 5.52393 8.1665 5.83335C8.1665 7.00002 6.4165 6.85419 6.4165 8.75002H7.58317C7.58317 7.43752 9.33317 7.29169 9.33317 5.83335C9.33317 5.21452 9.08734 4.62102 8.64975 4.18344C8.21217 3.74585 7.61868 3.50002 6.99984 3.50002Z" fill="#888888"/>
</svg>
