<svg width="40" height="40" fill="none" xmlns="http://www.w3.org/2000/svg"><g filter="url(#prefix__filter0_d_3308_4755)"><path fill-rule="evenodd" clip-rule="evenodd" d="M14.14 10.224c3.163-3.158 8.305-3.125 11.486.058 3.184 3.183 3.217 8.327.054 11.49-3.163 3.162-8.307 3.13-11.49-.054a8.174 8.174 0 01-2.332-6.9.625.625 0 111.24.17 6.923 6.923 0 001.975 5.847c2.704 2.703 7.057 2.72 9.724.053 2.665-2.666 2.65-7.019-.054-9.723-2.702-2.702-7.052-2.72-9.719-.057l.623.003a.624.624 0 11-.005 1.25l-2.122-.01a.625.625 0 01-.622-.623l-.01-2.12a.624.624 0 111.25-.006l.003.622zm5.767 1.817a.625.625 0 01.625.625v3.075l1.901 1.9a.626.626 0 11-.883.884l-2.267-2.267v-3.591a.625.625 0 01.625-.625" fill="#fff"/></g><defs><filter id="prefix__filter0_d_3308_4755" x="0" y="0" width="39.769" height="40" filterUnits="userSpaceOnUse" color-interpolation-filters="sRGB"><feFlood flood-opacity="0" result="BackgroundImageFix"/><feColorMatrix in="SourceAlpha" values="0 0 0 0 0 0 0 0 0 0 0 0 0 0 0 0 0 0 127 0" result="hardAlpha"/><feOffset dy="4"/><feGaussianBlur stdDeviation="2"/><feComposite in2="hardAlpha" operator="out"/><feColorMatrix values="0 0 0 0 0 0 0 0 0 0 0 0 0 0 0 0 0 0 0.15 0"/><feBlend in2="BackgroundImageFix" result="effect1_dropShadow_3308_4755"/><feBlend in="SourceGraphic" in2="effect1_dropShadow_3308_4755" result="shape"/></filter></defs></svg>