<svg width="40" height="40" viewBox="0 0 40 40" fill="none" xmlns="http://www.w3.org/2000/svg">
<g filter="url(#filter0_d_3308_4755)">
<path fill-rule="evenodd" clip-rule="evenodd" d="M14.1407 10.2242C17.3032 7.06582 22.4449 7.09915 25.6265 10.2817C28.8099 13.465 28.8432 18.6092 25.6799 21.7717C22.5165 24.9342 17.3732 24.9017 14.1899 21.7183C13.2944 20.8267 12.6177 19.7395 12.2132 18.5423C11.8086 17.3451 11.6871 16.0704 11.8582 14.8183C11.8806 14.654 11.9674 14.5053 12.0995 14.405C12.2315 14.3047 12.3981 14.2609 12.5624 14.2833C12.7267 14.3058 12.8754 14.3925 12.9757 14.5246C13.076 14.6567 13.1198 14.8232 13.0974 14.9875C12.9521 16.0486 13.0549 17.1289 13.3978 18.1435C13.7406 19.1582 14.3141 20.0795 15.0732 20.835C17.7774 23.5383 22.1299 23.5542 24.7965 20.8883C27.4624 18.2217 27.4465 13.8692 24.7432 11.165C22.0407 8.46332 17.6907 8.44582 15.024 11.1083L15.6474 11.1108C15.7295 11.1112 15.8107 11.1277 15.8863 11.1595C15.962 11.1913 16.0307 11.2376 16.0885 11.2959C16.1462 11.3542 16.1919 11.4234 16.223 11.4993C16.2541 11.5753 16.2698 11.6567 16.2695 11.7387C16.2691 11.8208 16.2525 11.902 16.2208 11.9777C16.189 12.0534 16.1426 12.1221 16.0843 12.1798C16.026 12.2376 15.9569 12.2833 15.8809 12.3144C15.805 12.3454 15.7236 12.3612 15.6415 12.3608L13.5199 12.3508C13.3551 12.3499 13.1974 12.2841 13.081 12.1675C12.9645 12.0509 12.8989 11.8931 12.8982 11.7283L12.8874 9.60832C12.8869 9.52624 12.9027 9.44489 12.9337 9.36889C12.9647 9.29289 13.0104 9.22375 13.0681 9.1654C13.1258 9.10706 13.1945 9.06065 13.2701 9.02884C13.3458 8.99702 13.427 8.98043 13.509 8.97999C13.5911 8.97955 13.6725 8.99528 13.7485 9.02629C13.8245 9.05729 13.8936 9.10296 13.952 9.16069C14.0103 9.21842 14.0567 9.28707 14.0885 9.36273C14.1203 9.43839 14.1369 9.51958 14.1374 9.60165L14.1407 10.2242ZM19.9074 12.0408C20.0731 12.0408 20.2321 12.1067 20.3493 12.2239C20.4665 12.3411 20.5324 12.5001 20.5324 12.6658V15.7408L22.4332 17.6408C22.4929 17.6984 22.5406 17.7674 22.5734 17.8436C22.6062 17.9199 22.6234 18.0019 22.6242 18.0849C22.625 18.1678 22.6092 18.2501 22.5778 18.327C22.5464 18.4038 22.5 18.4736 22.4414 18.5323C22.3827 18.591 22.313 18.6375 22.2362 18.6689C22.1594 18.7004 22.0771 18.7162 21.9941 18.7156C21.9111 18.7149 21.8291 18.6977 21.7528 18.665C21.6765 18.6322 21.6076 18.5847 21.5499 18.525L19.2832 16.2583V12.6667C19.2832 12.5009 19.3491 12.3419 19.4663 12.2247C19.5835 12.1075 19.7425 12.0417 19.9082 12.0417" fill="white"/>
</g>
<defs>
<filter id="filter0_d_3308_4755" x="0" y="0" width="39.7694" height="40" filterUnits="userSpaceOnUse" color-interpolation-filters="sRGB">
<feFlood flood-opacity="0" result="BackgroundImageFix"/>
<feColorMatrix in="SourceAlpha" type="matrix" values="0 0 0 0 0 0 0 0 0 0 0 0 0 0 0 0 0 0 127 0" result="hardAlpha"/>
<feOffset dy="4"/>
<feGaussianBlur stdDeviation="2"/>
<feComposite in2="hardAlpha" operator="out"/>
<feColorMatrix type="matrix" values="0 0 0 0 0 0 0 0 0 0 0 0 0 0 0 0 0 0 0.15 0"/>
<feBlend mode="normal" in2="BackgroundImageFix" result="effect1_dropShadow_3308_4755"/>
<feBlend mode="normal" in="SourceGraphic" in2="effect1_dropShadow_3308_4755" result="shape"/>
</filter>
</defs>
</svg>
