<svg width="14" height="15" viewBox="0 0 14 15" fill="none" xmlns="http://www.w3.org/2000/svg">
<path d="M9.91666 5.45825C10.3999 5.45825 10.7917 5.0665 10.7917 4.58325C10.7917 4.1 10.3999 3.70825 9.91666 3.70825C9.43341 3.70825 9.04166 4.1 9.04166 4.58325C9.04166 5.0665 9.43341 5.45825 9.91666 5.45825Z" fill="white"/>
<path d="M9.33333 2.25C10.9433 2.25 12.25 3.55667 12.25 5.16667V9.83333C12.25 11.4433 10.9433 12.75 9.33333 12.75H4.66667C3.05667 12.75 1.75 11.4433 1.75 9.83333V5.16667C1.75 3.55667 3.05667 2.25 4.66667 2.25H7H9.33333Z" stroke="white" stroke-width="1.33333" stroke-linecap="round" stroke-linejoin="round"/>
<path d="M6.99999 5.16675C8.28916 5.16675 9.33332 6.21091 9.33332 7.50008C9.33332 8.78925 8.28916 9.83341 6.99999 9.83341C5.71082 9.83341 4.66666 8.78925 4.66666 7.50008C4.66666 6.21091 5.71082 5.16675 6.99999 5.16675Z" stroke="white" stroke-width="1.33333" stroke-linecap="round" stroke-linejoin="round"/>
</svg>
