<svg width="14" height="15" viewBox="0 0 14 15" fill="none" xmlns="http://www.w3.org/2000/svg">
<path d="M11.0833 2.25C11.3928 2.25 11.6895 2.37292 11.9083 2.59171C12.1271 2.8105 12.25 3.10725 12.25 3.41667V11.5833C12.25 11.8928 12.1271 12.1895 11.9083 12.4083C11.6895 12.6271 11.3928 12.75 11.0833 12.75H2.91667C2.60725 12.75 2.3105 12.6271 2.09171 12.4083C1.87292 12.1895 1.75 11.8928 1.75 11.5833V3.41667C1.75 3.10725 1.87292 2.8105 2.09171 2.59171C2.3105 2.37292 2.60725 2.25 2.91667 2.25H11.0833ZM10.7917 11.2917V8.2C10.7917 7.69565 10.5913 7.21195 10.2347 6.85532C9.87805 6.49869 9.39435 6.29833 8.89 6.29833C8.39417 6.29833 7.81667 6.60167 7.53667 7.05667V6.40917H5.90917V11.2917H7.53667V8.41583C7.53667 7.96667 7.89833 7.59917 8.3475 7.59917C8.56409 7.59917 8.77182 7.68521 8.92497 7.83836C9.07812 7.99152 9.16417 8.19924 9.16417 8.41583V11.2917H10.7917ZM4.01333 5.49333C4.27325 5.49333 4.52251 5.39008 4.7063 5.2063C4.89008 5.02251 4.99333 4.77325 4.99333 4.51333C4.99333 3.97083 4.55583 3.5275 4.01333 3.5275C3.75187 3.5275 3.50112 3.63136 3.31624 3.81624C3.13136 4.00112 3.0275 4.25187 3.0275 4.51333C3.0275 5.05583 3.47083 5.49333 4.01333 5.49333ZM4.82417 11.2917V6.40917H3.20833V11.2917H4.82417Z" fill="white"/>
</svg>
