<svg width="20" height="20" viewBox="0 0 20 20" fill="none" xmlns="http://www.w3.org/2000/svg">
<path d="M9.99998 10.8337C9.74627 10.8307 9.49774 10.9055 9.28785 11.0481C9.07795 11.1906 8.91677 11.3941 8.82599 11.631C8.73521 11.8679 8.7192 12.127 8.7801 12.3733C8.84101 12.6196 8.97591 12.8413 9.16665 13.0087V14.167C9.16665 14.388 9.25444 14.6 9.41072 14.7562C9.567 14.9125 9.77897 15.0003 9.99998 15.0003C10.221 15.0003 10.433 14.9125 10.5892 14.7562C10.7455 14.6 10.8333 14.388 10.8333 14.167V13.0087C11.0241 12.8413 11.159 12.6196 11.2199 12.3733C11.2808 12.127 11.2647 11.8679 11.174 11.631C11.0832 11.3941 10.922 11.1906 10.7121 11.0481C10.5022 10.9055 10.2537 10.8307 9.99998 10.8337ZM14.1666 7.50033V5.83366C14.1666 4.72859 13.7277 3.66878 12.9463 2.88738C12.1649 2.10598 11.105 1.66699 9.99998 1.66699C8.89491 1.66699 7.8351 2.10598 7.0537 2.88738C6.2723 3.66878 5.83331 4.72859 5.83331 5.83366V7.50033C5.17027 7.50033 4.53439 7.76372 4.06555 8.23256C3.59671 8.7014 3.33331 9.33728 3.33331 10.0003V15.8337C3.33331 16.4967 3.59671 17.1326 4.06555 17.6014C4.53439 18.0703 5.17027 18.3337 5.83331 18.3337H14.1666C14.8297 18.3337 15.4656 18.0703 15.9344 17.6014C16.4033 17.1326 16.6666 16.4967 16.6666 15.8337V10.0003C16.6666 9.33728 16.4033 8.7014 15.9344 8.23256C15.4656 7.76372 14.8297 7.50033 14.1666 7.50033ZM7.49998 5.83366C7.49998 5.17062 7.76337 4.53473 8.23221 4.06589C8.70105 3.59705 9.33694 3.33366 9.99998 3.33366C10.663 3.33366 11.2989 3.59705 11.7677 4.06589C12.2366 4.53473 12.5 5.17062 12.5 5.83366V7.50033H7.49998V5.83366ZM15 15.8337C15 16.0547 14.9122 16.2666 14.7559 16.4229C14.5996 16.5792 14.3877 16.667 14.1666 16.667H5.83331C5.6123 16.667 5.40034 16.5792 5.24406 16.4229C5.08778 16.2666 4.99998 16.0547 4.99998 15.8337V10.0003C4.99998 9.77931 5.08778 9.56735 5.24406 9.41107C5.40034 9.25479 5.6123 9.16699 5.83331 9.16699H14.1666C14.3877 9.16699 14.5996 9.25479 14.7559 9.41107C14.9122 9.56735 15 9.77931 15 10.0003V15.8337Z" fill="#99A0AE"/>
</svg>
