<svg width="16" height="17" viewBox="0 0 16 17" fill="none" xmlns="http://www.w3.org/2000/svg">
<rect y="0.5" width="16" height="16" rx="8" fill="white"/>
<path d="M4.564 10.5V6.3H5.344V9.84H7.54V10.5H4.564ZM8.1558 10.5V6.3H9.8838C10.2558 6.3 10.5738 6.36 10.8378 6.48C11.1058 6.6 11.3118 6.772 11.4558 6.996C11.5998 7.22 11.6718 7.486 11.6718 7.794C11.6718 8.102 11.5998 8.368 11.4558 8.592C11.3118 8.816 11.1058 8.988 10.8378 9.108C10.5738 9.228 10.2558 9.288 9.8838 9.288H8.5878L8.9358 8.922V10.5H8.1558ZM8.9358 9.006L8.5878 8.628H9.8478C10.1918 8.628 10.4498 8.556 10.6218 8.412C10.7978 8.264 10.8858 8.058 10.8858 7.794C10.8858 7.526 10.7978 7.32 10.6218 7.176C10.4498 7.032 10.1918 6.96 9.8478 6.96H8.5878L8.9358 6.576V9.006Z" fill="black"/>
</svg>
