<svg width="14" height="15" viewBox="0 0 14 15" fill="none" xmlns="http://www.w3.org/2000/svg">
<path d="M3.59217 2.25H10.4078C10.8963 2.25031 11.3647 2.44449 11.7101 2.7899C12.0555 3.13531 12.2497 3.60369 12.25 4.09217V6.05567C12.2024 6.05265 12.1548 6.05109 12.1071 6.051C11.85 6.04964 11.596 6.10669 11.3642 6.21785C11.1324 6.32901 10.9288 6.49136 10.7689 6.69267C10.4936 7.0345 10.3267 7.49592 10.2859 8.0145C10.2774 8.11794 10.2741 8.22139 10.276 8.32483C10.3034 9.49967 10.9381 10.4388 12.0657 10.4388C12.1287 10.4388 12.1901 10.4359 12.25 10.4301V10.9084C12.2495 11.3968 12.0553 11.865 11.7099 12.2103C11.3645 12.5556 10.8962 12.7497 10.4078 12.75H3.59217C3.10369 12.7497 2.63531 12.5555 2.2899 12.2101C1.94449 11.8647 1.75031 11.3963 1.75 10.9078V4.09217C1.75031 3.60369 1.94449 3.13531 2.2899 2.7899C2.63531 2.44449 3.10369 2.25031 3.59217 2.25ZM12.25 9.47633V7.88617H11.2857C11.2426 8.65383 11.6626 9.30367 12.25 9.47633ZM12.25 7.66392V6.31758C12.2013 6.30435 12.1511 6.29749 12.1007 6.29717C11.6252 6.30708 11.3423 6.87583 11.3073 7.66392H12.25ZM10.3233 4.75833L10.332 4.75658V4.69242H8.64033L7.07117 8.38258L5.50083 4.69242H3.6785V4.75658L3.68667 4.75833C3.99525 4.82833 4.15158 4.93217 4.15158 5.30667V9.69333C4.15158 10.0678 3.99408 10.1717 3.68608 10.2417L3.67792 10.2428V10.307H4.91458V10.2428L4.90583 10.2417C4.59725 10.1717 4.44033 10.0678 4.44033 9.69333V5.561L6.4575 10.3076H6.57183L8.64792 5.42858V9.80125C8.62108 10.0976 8.46592 10.1892 8.1865 10.2522L8.17833 10.2539V10.3175H10.332V10.2533L10.3233 10.2522C10.0433 10.1892 9.88458 10.0976 9.85833 9.80125L9.85658 5.30667H9.85833C9.85833 4.93217 10.0147 4.82833 10.3233 4.75833Z" fill="white"/>
</svg>
