<svg width="20" height="20" viewBox="0 0 20 20" fill="none" xmlns="http://www.w3.org/2000/svg">
<path d="M9.1665 4.58313V4.59146" stroke="#9B9D9D" stroke-width="1.25" stroke-linecap="round"/>
<path d="M10.8335 15.4082V15.4165" stroke="#9B9D9D" stroke-width="1.25" stroke-linecap="round"/>
<path d="M14.5818 7.08333H12.9159V5.41667C12.9159 4.24628 12.9159 3.66109 12.635 3.24072C12.5134 3.05873 12.3572 2.90248 12.1752 2.78088C11.7548 2.5 11.1696 2.5 9.99924 2.5C8.82883 2.5 8.24364 2.5 7.82327 2.78088C7.64128 2.90248 7.48504 3.05873 7.36344 3.24072C7.08255 3.66109 7.08255 4.24628 7.08255 5.41667V7.08333H5.4152C4.24481 7.08333 3.65962 7.08333 3.23925 7.36422C3.05727 7.48582 2.90102 7.64207 2.77942 7.82405C2.49854 8.24442 2.49854 8.82958 2.49854 10C2.49854 11.1704 2.49854 11.7556 2.77942 12.1759C2.90101 12.3579 3.05727 12.5142 3.23925 12.6357C3.65962 12.9167 4.24481 12.9167 5.4152 12.9167H7.08255V14.5833C7.08255 15.7537 7.08255 16.3389 7.36344 16.7592C7.48504 16.9412 7.64128 17.0975 7.82327 17.2191C8.24364 17.5 8.82883 17.5 9.99924 17.5C11.1696 17.5 11.7548 17.5 12.1752 17.2191C12.3572 17.0975 12.5134 16.9412 12.635 16.7592C12.9159 16.3389 12.9159 15.7537 12.9159 14.5833V12.9167H14.5818C15.7522 12.9167 16.3374 12.9167 16.7578 12.6357C16.9398 12.5142 17.0961 12.3579 17.2177 12.1759C17.4985 11.7556 17.4985 11.1704 17.4985 10C17.4985 8.82958 17.4985 8.24442 17.2177 7.82405C17.0961 7.64207 16.9398 7.48582 16.7578 7.36422C16.3374 7.08333 15.7522 7.08333 14.5818 7.08333Z" stroke="#9B9D9D" stroke-width="1.25" stroke-linecap="round" stroke-linejoin="round"/>
<path d="M12.9163 7.08301V9.99967H7.08301V12.9163M9.99967 12.9163H12.9163M7.08301 7.08301H9.99967" stroke="#9B9D9D" stroke-width="1.25" stroke-linecap="round" stroke-linejoin="round"/>
</svg>
