<svg width="32" height="32" fill="none" xmlns="http://www.w3.org/2000/svg"><path d="M12 16.111a.555.555 0 00-.556-.556H8.111a.556.556 0 000 1.112h3.333A.556.556 0 0012 16.11zM12.522 13.333H9.19a.556.556 0 000 1.111h3.333a.556.556 0 000-1.11zM12.222 17.778H8.89a.555.555 0 100 1.11h3.333a.556.556 0 100-1.11zM18.167 17.778h-3.89a.556.556 0 100 1.11h3.89a.555.555 0 100-1.11zM18.722 15.556h-3.889a.556.556 0 000 1.11h3.89a.556.556 0 000-1.11z" fill="#fff"/><path d="M18.744 14.444a15.557 15.557 0 00-1.566-5.622 11.244 11.244 0 00-3.511-3.983L15 1.9a.556.556 0 00-.039-.556.555.555 0 00-.444-.233H5.444a.555.555 0 00-.505.789L6.3 4.85a11.278 11.278 0 00-3.489 3.972c-1.194 2.222-1.567 4.94-1.667 6.823A2 2 0 001.7 17.15a2.111 2.111 0 001.522.595h3.445v-1.078h-3.49a.933.933 0 01-.869-.605.9.9 0 01-.052-.368c.077-1.45.383-4.21 1.533-6.36a10 10 0 013.478-3.778h.555c-.376.52-.723 1.062-1.039 1.622-.32.596-.594 1.216-.816 1.855l.76.511c.226-.663.502-1.307.829-1.927.4-.721.855-1.41 1.36-2.061h.556c.373.89.636 1.823.784 2.777.12.709.18 1.426.177 2.145l.878-.617a13.316 13.316 0 00-.178-1.667 13.89 13.89 0 00-.71-2.638h.433l.505-1.112H7.34L6.31 2.222h7.339l-1.389 3.04c.238.127.466.272.683.432a10.333 10.333 0 013.256 3.65c.78 1.6 1.263 3.328 1.428 5.1h1.116z" fill="#fff"/></svg>