<svg width="18" height="18" viewBox="0 0 18 18" fill="none" xmlns="http://www.w3.org/2000/svg">
<path d="M12.445 13H16.375C16.045 8.645 14.17 5.94 11.765 4.34L12.86 1.95C12.8931 1.87416 12.9069 1.79129 12.9001 1.70883C12.8933 1.62636 12.8661 1.54687 12.821 1.4775C12.7759 1.40812 12.7143 1.35101 12.6417 1.31131C12.5691 1.2716 12.4878 1.25054 12.405 1.25H5.55002C5.46728 1.25054 5.38596 1.2716 5.31336 1.31131C5.24076 1.35101 5.17915 1.40812 5.13406 1.4775C5.08896 1.54687 5.06179 1.62636 5.05497 1.70883C5.04816 1.79129 5.06192 1.87416 5.09502 1.95L5.69502 3.25H10.755L10.305 4.25H9.38002C9.66222 5.00972 9.86986 5.79508 10 6.595C10.0835 7.09132 10.1369 7.59224 10.16 8.095L9.37002 8.65C9.37227 8.00326 9.31873 7.35754 9.21002 6.72C9.07205 5.87145 8.83371 5.0423 8.50002 4.25H8.00002C7.53822 4.83276 7.12357 5.45138 6.76002 6.1C6.46675 6.65626 6.21765 7.2347 6.01502 7.83L5.33002 7.375C5.53041 6.79975 5.77618 6.24132 6.06502 5.705C6.35748 5.20238 6.67798 4.71661 7.02502 4.25H6.15002L6.19002 4.335C3.54002 6.1 1.52502 9.2 1.52502 14.375C1.51827 14.4838 1.53313 14.5928 1.56876 14.6958C1.60439 14.7988 1.66008 14.8938 1.7326 14.9751C1.80513 15.0565 1.89306 15.1227 1.99131 15.1698C2.08956 15.217 2.19618 15.2443 2.30502 15.25H6.30502C6.13327 15.0712 6.01468 14.8482 5.96254 14.6058C5.9104 14.3635 5.92677 14.1114 6.00982 13.8778C6.09287 13.6442 6.23932 13.4384 6.43275 13.2834C6.62619 13.1283 6.85897 13.0302 7.10502 13C6.98528 12.7969 6.92145 12.5658 6.92002 12.33C6.92002 11.972 7.06226 11.6286 7.31543 11.3754C7.5686 11.1222 7.91198 10.98 8.27002 10.98H11.27C11.6281 10.98 11.9714 11.1222 12.2246 11.3754C12.4778 11.6286 12.62 11.972 12.62 12.33C12.6226 12.565 12.5622 12.7963 12.445 13Z" fill="white"/>
<path d="M10.8 14.25C10.8 14.1174 10.7473 13.9902 10.6535 13.8964C10.5598 13.8027 10.4326 13.75 10.3 13.75H7.29999C7.16738 13.75 7.0402 13.8027 6.94643 13.8964C6.85267 13.9902 6.79999 14.1174 6.79999 14.25C6.79999 14.3826 6.85267 14.5098 6.94643 14.6036C7.0402 14.6973 7.16738 14.75 7.29999 14.75H10.3C10.4326 14.75 10.5598 14.6973 10.6535 14.6036C10.7473 14.5098 10.8 14.3826 10.8 14.25Z" fill="white"/>
<path d="M11.27 11.75H8.27002C8.13741 11.75 8.01023 11.8027 7.91647 11.8964C7.8227 11.9902 7.77002 12.1174 7.77002 12.25C7.77002 12.3826 7.8227 12.5098 7.91647 12.6036C8.01023 12.6973 8.13741 12.75 8.27002 12.75H11.27C11.4026 12.75 11.5298 12.6973 11.6236 12.6036C11.7173 12.5098 11.77 12.3826 11.77 12.25C11.77 12.1174 11.7173 11.9902 11.6236 11.8964C11.5298 11.8027 11.4026 11.75 11.27 11.75Z" fill="white"/>
<path d="M11 15.75H8C7.86739 15.75 7.74021 15.8027 7.64645 15.8964C7.55268 15.9902 7.5 16.1174 7.5 16.25C7.5 16.3826 7.55268 16.5098 7.64645 16.6036C7.74021 16.6973 7.86739 16.75 8 16.75H11C11.1326 16.75 11.2598 16.6973 11.3536 16.6036C11.4473 16.5098 11.5 16.3826 11.5 16.25C11.5 16.1174 11.4473 15.9902 11.3536 15.8964C11.2598 15.8027 11.1326 15.75 11 15.75Z" fill="white"/>
<path d="M16.35 15.75H12.85C12.7174 15.75 12.5902 15.8027 12.4964 15.8964C12.4027 15.9902 12.35 16.1174 12.35 16.25C12.35 16.3826 12.4027 16.5098 12.4964 16.6036C12.5902 16.6973 12.7174 16.75 12.85 16.75H16.35C16.4826 16.75 16.6098 16.6973 16.7035 16.6036C16.7973 16.5098 16.85 16.3826 16.85 16.25C16.85 16.1174 16.7973 15.9902 16.7035 15.8964C16.6098 15.8027 16.4826 15.75 16.35 15.75Z" fill="white"/>
<path d="M16.85 13.75H13.35C13.2174 13.75 13.0902 13.8027 12.9964 13.8964C12.9027 13.9902 12.85 14.1174 12.85 14.25C12.85 14.3826 12.9027 14.5098 12.9964 14.6036C13.0902 14.6973 13.2174 14.75 13.35 14.75H16.85C16.9826 14.75 17.1098 14.6973 17.2035 14.6036C17.2973 14.5098 17.35 14.3826 17.35 14.25C17.35 14.1174 17.2973 13.9902 17.2035 13.8964C17.1098 13.8027 16.9826 13.75 16.85 13.75Z" fill="white"/>
</svg>
