<svg width="20" height="20" viewBox="0 0 20 20" fill="none" xmlns="http://www.w3.org/2000/svg">
<path d="M12 16.1111C12 15.9638 11.9415 15.8224 11.8373 15.7183C11.7331 15.6141 11.5918 15.5555 11.4444 15.5555H8.1111C7.96376 15.5555 7.82245 15.6141 7.71826 15.7183C7.61407 15.8224 7.55554 15.9638 7.55554 16.1111C7.55554 16.2584 7.61407 16.3997 7.71826 16.5039C7.82245 16.6081 7.96376 16.6667 8.1111 16.6667H11.4444C11.5918 16.6667 11.7331 16.6081 11.8373 16.5039C11.9415 16.3997 12 16.2584 12 16.1111Z" fill="white"/>
<path d="M12.5222 13.3333H9.18889C9.04154 13.3333 8.90024 13.3919 8.79605 13.4961C8.69186 13.6002 8.63333 13.7416 8.63333 13.8889C8.63333 14.0362 8.69186 14.1776 8.79605 14.2817C8.90024 14.3859 9.04154 14.4445 9.18889 14.4445H12.5222C12.6696 14.4445 12.8109 14.3859 12.9151 14.2817C13.0192 14.1776 13.0778 14.0362 13.0778 13.8889C13.0778 13.7416 13.0192 13.6002 12.9151 13.4961C12.8109 13.3919 12.6696 13.3333 12.5222 13.3333Z" fill="white"/>
<path d="M12.2222 17.7778H8.8889C8.74156 17.7778 8.60025 17.8363 8.49606 17.9405C8.39188 18.0447 8.33334 18.186 8.33334 18.3333C8.33334 18.4807 8.39188 18.622 8.49606 18.7262C8.60025 18.8304 8.74156 18.8889 8.8889 18.8889H12.2222C12.3696 18.8889 12.5109 18.8304 12.6151 18.7262C12.7193 18.622 12.7778 18.4807 12.7778 18.3333C12.7778 18.186 12.7193 18.0447 12.6151 17.9405C12.5109 17.8363 12.3696 17.7778 12.2222 17.7778Z" fill="white"/>
<path d="M18.1667 17.7778H14.2778C14.1304 17.7778 13.9891 17.8363 13.8849 17.9405C13.7808 18.0447 13.7222 18.186 13.7222 18.3333C13.7222 18.4807 13.7808 18.622 13.8849 18.7262C13.9891 18.8304 14.1304 18.8889 14.2778 18.8889H18.1667C18.314 18.8889 18.4553 18.8304 18.5595 18.7262C18.6637 18.622 18.7222 18.4807 18.7222 18.3333C18.7222 18.186 18.6637 18.0447 18.5595 17.9405C18.4553 17.8363 18.314 17.7778 18.1667 17.7778Z" fill="white"/>
<path d="M18.7222 15.5555H14.8333C14.686 15.5555 14.5447 15.6141 14.4405 15.7183C14.3363 15.8224 14.2778 15.9638 14.2778 16.1111C14.2778 16.2584 14.3363 16.3997 14.4405 16.5039C14.5447 16.6081 14.686 16.6667 14.8333 16.6667H18.7222C18.8696 16.6667 19.0109 16.6081 19.1151 16.5039C19.2192 16.3997 19.2778 16.2584 19.2778 16.1111C19.2778 15.9638 19.2192 15.8224 19.1151 15.7183C19.0109 15.6141 18.8696 15.5555 18.7222 15.5555Z" fill="white"/>
<path d="M18.7445 14.4445C18.5816 12.4883 18.0501 10.5807 17.1778 8.82223C16.3422 7.23319 15.1383 5.86733 13.6667 4.83889L15 1.90001C15.043 1.81217 15.062 1.71455 15.0552 1.617C15.0484 1.51945 15.0159 1.42544 14.9611 1.34445C14.9105 1.2734 14.844 1.21526 14.7667 1.17472C14.6895 1.13419 14.6039 1.1124 14.5167 1.11112H5.44445C5.35105 1.11088 5.25911 1.1342 5.17711 1.17891C5.09512 1.22362 5.02571 1.28828 4.97532 1.36692C4.92493 1.44555 4.89518 1.53562 4.88881 1.62879C4.88244 1.72197 4.89967 1.81525 4.93889 1.90001L6.3 4.85C4.83873 5.87893 3.64291 7.24042 2.81111 8.82223C1.61667 11.0444 1.24445 13.7611 1.14445 15.6445C1.12807 15.9202 1.16898 16.1963 1.2646 16.4554C1.36021 16.7145 1.50846 16.951 1.7 17.15C1.9015 17.3453 2.1399 17.4984 2.40126 17.6005C2.66263 17.7026 2.94172 17.7515 3.22223 17.7445H6.66667V16.6667H3.17778C3.05205 16.6663 2.9277 16.6405 2.81218 16.5908C2.69667 16.5412 2.59237 16.4687 2.50556 16.3778C2.41862 16.2876 2.35147 16.1802 2.30842 16.0625C2.26537 15.9448 2.24737 15.8195 2.25556 15.6945C2.33334 14.2445 2.63889 11.4833 3.78889 9.33334C4.59958 7.79284 5.79836 6.49065 7.26667 5.55556H7.82223C7.44594 6.0765 7.0991 6.61808 6.78334 7.17778C6.4624 7.7737 6.18932 8.39417 5.96667 9.03334L6.72778 9.54445C6.95264 8.88111 7.22943 8.23653 7.55556 7.61667C7.95585 6.89582 8.41089 6.20676 8.91667 5.55556H9.47223C9.84465 6.44642 10.1077 7.37915 10.2556 8.33334C10.3763 9.04171 10.4358 9.75919 10.4333 10.4778L11.3111 9.86112C11.2869 9.30238 11.2275 8.74573 11.1333 8.19445C10.9836 7.29358 10.7454 6.40967 10.4222 5.55556H10.8556L11.3611 4.44445H7.33889L6.31111 2.22223H13.65L12.2611 5.26112C12.4991 5.38876 12.7275 5.53359 12.9444 5.69445C14.3061 6.63307 15.4225 7.8848 16.2 9.34445C16.9792 10.9446 17.4628 12.6723 17.6278 14.4445H18.7445Z" fill="white"/>
</svg>
