<svg width="16" height="17" viewBox="0 0 16 17" fill="none" xmlns="http://www.w3.org/2000/svg">
<path d="M5.33325 4.50001C7.54259 4.50001 9.33325 3.90334 9.33325 3.16668C9.33325 2.43001 7.54259 1.83334 5.33325 1.83334C3.12392 1.83334 1.33325 2.43001 1.33325 3.16668C1.33325 3.90334 3.12392 4.50001 5.33325 4.50001ZM10.3333 6.50001C9.18398 6.50001 8.08178 6.95656 7.26912 7.76921C6.45646 8.58187 5.99992 9.68407 5.99992 10.8333C5.99992 11.9826 6.45646 13.0848 7.26912 13.8975C8.08178 14.7101 9.18398 15.1667 10.3333 15.1667C11.4825 15.1667 12.5847 14.7101 13.3974 13.8975C14.21 13.0848 14.6666 11.9826 14.6666 10.8333C14.6666 9.68407 14.21 8.58187 13.3974 7.76921C12.5847 6.95656 11.4825 6.50001 10.3333 6.50001Z" stroke="white" stroke-linecap="round" stroke-linejoin="round"/>
<path d="M10.3333 13.1667C10.4033 13.1667 10.4679 13.1334 10.5979 13.068L11.6406 12.5374C12.1026 12.3027 12.3333 12.186 12.3333 12V9.66669M10.3333 13.1667C10.2633 13.1667 10.1986 13.1334 10.0686 13.068L9.02592 12.5374C8.56392 12.3027 8.33325 12.186 8.33325 12V9.66669M10.3333 13.1667V10.8334M12.3333 9.66669C12.3333 9.48069 12.1026 9.36402 11.6406 9.12935L10.5979 8.59869C10.4679 8.53335 10.4033 8.50002 10.3333 8.50002C10.2633 8.50002 10.1986 8.53335 10.0686 8.59869L9.02592 9.12935C8.56392 9.36335 8.33325 9.48069 8.33325 9.66669M12.3333 9.66669C12.3333 9.85269 12.1026 9.96935 11.6406 10.204L10.5979 10.7347C10.4679 10.8 10.4033 10.8334 10.3333 10.8334M8.33325 9.66669C8.33325 9.85269 8.56392 9.96935 9.02592 10.204L10.0686 10.7347C10.1986 10.8 10.2633 10.8334 10.3333 10.8334M1.33325 3.16669V8.52869C1.33325 8.99802 2.11859 9.58869 4.08659 9.83335M1.40459 6.19869C2.20792 6.90669 3.63992 7.20669 5.16925 7.20669M9.32525 3.24735V4.59069" stroke="white" stroke-linecap="round" stroke-linejoin="round"/>
</svg>
