<svg width="20" height="20" viewBox="0 0 20 20" fill="none" xmlns="http://www.w3.org/2000/svg">
<path d="M10 2.5C10 6.64213 13.3578 10 17.5 10C13.3578 10 10 13.3578 10 17.5C10 13.3578 6.64213 10 2.5 10C6.64213 10 10 6.64213 10 2.5Z" fill="white"/>
<path d="M15.0198 2.5C15.0198 3.86979 16.1302 4.98022 17.5 4.98022C16.1302 4.98022 15.0198 6.09065 15.0198 7.46045C15.0198 6.09065 13.9093 4.98022 12.5396 4.98022C13.9093 4.98022 15.0198 3.86979 15.0198 2.5Z" fill="white"/>
<path d="M5.50024 4.40002C5.50024 5.22859 6.17192 5.90027 7.00049 5.90027C6.17192 5.90027 5.50024 6.57194 5.50024 7.40051C5.50024 6.57194 4.82856 5.90027 4 5.90027C4.82856 5.90027 5.50024 5.22859 5.50024 4.40002Z" fill="white"/>
<path d="M14.0436 12.9106C14.0436 14.3148 15.1819 15.4531 16.5861 15.4531C15.1819 15.4531 14.0436 16.5914 14.0436 17.9956C14.0436 16.5914 12.9053 15.4531 11.5011 15.4531C12.9053 15.4531 14.0436 14.3148 14.0436 12.9106Z" fill="white"/>
</svg>
