<svg width="14" height="15" viewBox="0 0 14 15" fill="none" xmlns="http://www.w3.org/2000/svg">
<path d="M6.99999 1.66669C3.77999 1.66669 1.16666 4.28002 1.16666 7.50002C1.16666 10.72 3.77999 13.3334 6.99999 13.3334C10.22 13.3334 12.8333 10.72 12.8333 7.50002C12.8333 4.28002 10.22 1.66669 6.99999 1.66669ZM9.70666 5.63335C9.61916 6.55502 9.23999 8.79502 9.04749 9.82752C8.96582 10.265 8.80249 10.4109 8.65082 10.4284C8.31249 10.4575 8.05582 10.2067 7.72916 9.99085C7.21582 9.65252 6.92416 9.44252 6.42832 9.11585C5.85082 8.73669 6.22416 8.52669 6.55666 8.18835C6.64416 8.10085 8.13749 6.74169 8.16666 6.61919C8.17071 6.60063 8.17017 6.58137 8.16509 6.56307C8.16 6.54477 8.15053 6.52799 8.13749 6.51419C8.10249 6.48502 8.05582 6.49669 8.01499 6.50252C7.96249 6.51419 7.14582 7.05669 5.55332 8.13002C5.31999 8.28752 5.10999 8.36919 4.92332 8.36335C4.71332 8.35752 4.31666 8.24669 4.01916 8.14752C3.65166 8.03085 3.36582 7.96669 3.38916 7.76252C3.40082 7.65752 3.54666 7.55252 3.82082 7.44169C5.52416 6.70085 6.65582 6.21085 7.22166 5.97752C8.84332 5.30085 9.17582 5.18419 9.39749 5.18419C9.44416 5.18419 9.55499 5.19585 9.62499 5.25419C9.68332 5.30085 9.70082 5.36502 9.70666 5.41169C9.70082 5.44669 9.71249 5.55169 9.70666 5.63335Z" fill="white"/>
</svg>
