<svg width="14" height="15" viewBox="0 0 14 15" fill="none" xmlns="http://www.w3.org/2000/svg">
<g clip-path="url(#clip0_3347_4977)">
<path d="M7 14.4928C10.862 14.4928 13.9927 11.362 13.9927 7.50006C13.9927 3.63808 10.862 0.507324 7 0.507324C3.13802 0.507324 0.00726318 3.63808 0.00726318 7.50006C0.00726318 11.362 3.13802 14.4928 7 14.4928Z" fill="black"/>
<path d="M9.53236 3.56274H10.8682L7.94981 6.89836L11.3831 11.4373H8.69481L6.58927 8.68443L4.1801 11.4373H2.84346L5.96493 7.86955L2.67145 3.56274H5.42798L7.33114 6.07898L9.53236 3.56274ZM9.06353 10.6377H9.80372L5.02577 4.32038H4.23146L9.06353 10.6377Z" fill="white"/>
</g>
<defs>
<clipPath id="clip0_3347_4977">
<rect width="14" height="14" fill="white" transform="translate(0 0.5)"/>
</clipPath>
</defs>
</svg>
