<svg width="21" height="20" viewBox="0 0 21 20" fill="none" xmlns="http://www.w3.org/2000/svg">
<path d="M14.6667 6.66667V4.16667C14.6667 3.94566 14.5789 3.73369 14.4226 3.57741C14.2663 3.42113 14.0544 3.33334 13.8334 3.33334H5.50004C5.05801 3.33334 4.63409 3.50893 4.32153 3.82149C4.00897 4.13405 3.83337 4.55797 3.83337 5M3.83337 5C3.83337 5.44203 4.00897 5.86595 4.32153 6.17851C4.63409 6.49107 5.05801 6.66667 5.50004 6.66667H15.5C15.7211 6.66667 15.933 6.75447 16.0893 6.91075C16.2456 7.06703 16.3334 7.27899 16.3334 7.5V10M3.83337 5V15C3.83337 15.442 4.00897 15.866 4.32153 16.1785C4.63409 16.4911 5.05801 16.6667 5.50004 16.6667H15.5C15.7211 16.6667 15.933 16.5789 16.0893 16.4226C16.2456 16.2663 16.3334 16.0543 16.3334 15.8333V13.3333" stroke="white" stroke-width="1.16667" stroke-linecap="round" stroke-linejoin="round"/>
<path d="M17.1667 10V13.3333H13.8334C13.3914 13.3333 12.9675 13.1577 12.6549 12.8452C12.3423 12.5326 12.1667 12.1087 12.1667 11.6667C12.1667 11.2246 12.3423 10.8007 12.6549 10.4882C12.9675 10.1756 13.3914 10 13.8334 10H17.1667Z" stroke="white" stroke-width="1.16667" stroke-linecap="round" stroke-linejoin="round"/>
</svg>
