<svg width="49" height="49" viewBox="0 0 49 49" fill="none" xmlns="http://www.w3.org/2000/svg">
<path d="M34.7083 16.3334V10.2084C34.7083 9.66687 34.4932 9.14756 34.1103 8.76468C33.7274 8.38179 33.2081 8.16669 32.6667 8.16669H12.25C11.167 8.16669 10.1284 8.59689 9.36264 9.36267C8.59686 10.1284 8.16666 11.1671 8.16666 12.25M8.16666 12.25C8.16666 13.333 8.59686 14.3716 9.36264 15.1374C10.1284 15.9031 11.167 16.3334 12.25 16.3334H36.75C37.2915 16.3334 37.8108 16.5485 38.1937 16.9313C38.5766 17.3142 38.7917 17.8335 38.7917 18.375V24.5M8.16666 12.25V36.75C8.16666 37.833 8.59686 38.8716 9.36264 39.6374C10.1284 40.4031 11.167 40.8334 12.25 40.8334H36.75C37.2915 40.8334 37.8108 40.6182 38.1937 40.2354C38.5766 39.8525 38.7917 39.3332 38.7917 38.7917V32.6667" stroke="#5E4DFD" stroke-width="2" stroke-linecap="round" stroke-linejoin="round"/>
<path d="M40.8333 24.5V32.6667H32.6666C31.5837 32.6667 30.5451 32.2365 29.7793 31.4707C29.0135 30.7049 28.5833 29.6663 28.5833 28.5833C28.5833 27.5004 29.0135 26.4618 29.7793 25.696C30.5451 24.9302 31.5837 24.5 32.6666 24.5H40.8333Z" stroke="#5E4DFD" stroke-width="2" stroke-linecap="round" stroke-linejoin="round"/>
</svg>
