<svg width="14" height="15" viewBox="0 0 14 15" fill="none" xmlns="http://www.w3.org/2000/svg">
<g clip-path="url(#clip0_3321_1862)">
<path d="M7 14.4927C10.862 14.4927 13.9927 11.362 13.9927 7.5C13.9927 3.63802 10.862 0.507263 7 0.507263C3.13802 0.507263 0.00726318 3.63802 0.00726318 7.5C0.00726318 11.362 3.13802 14.4927 7 14.4927Z" fill="white"/>
<path d="M9.53236 3.56262H10.8682L7.94981 6.89824L11.3831 11.4372H8.69481L6.58927 8.6843L4.1801 11.4372H2.84346L5.96493 7.86943L2.67145 3.56262H5.42798L7.33114 6.07886L9.53236 3.56262ZM9.06353 10.6376H9.80372L5.02577 4.32025H4.23146L9.06353 10.6376Z" fill="#1E1F1F"/>
</g>
<defs>
<clipPath id="clip0_3321_1862">
<rect width="14" height="14" fill="white" transform="translate(0 0.5)"/>
</clipPath>
</defs>
</svg>
